<?xml version="1.0" encoding="UTF-8" standalone="no"?>
<svg
   width="128"
   height="128"
   viewBox="0 0 128 128"
   version="1.1"
   xmlns="http://www.w3.org/2000/svg"
   xmlns:svg="http://www.w3.org/2000/svg">
  <style>
    text {
      font-family: sans-serif;
      font-size: 32px;
      text-anchor: middle;
      fill: black;
    }
    @media (prefers-color-scheme: dark) {
      text {
        fill: white;
      }
    }
  </style>
  <g>
    <text x="64" y="28">zako~</text>

    <g transform="translate(-15.08569,-15.121163)">
      <path
         d="m 95.08569,51.121163 c -1.90515,0.116064 -3.64694,0.97349 -4.86738,2.391307 -1.34538,1.56738 -1.91476,3.733159 -1.59523,6.070852
         0.40842,2.982962 2.1502,6.17135 5.13887,9.411078 0.63424,0.68546 1.08109,1.129773 1.98202,1.967071
         1.58321,1.469144 3.01507,2.634638 4.9875,4.052454 0.70392,0.50905 2.09253,1.453525 2.61627,1.781734
         l 0.15133,0.09594 0.22103,-0.140663 c 0.80481,-0.515755 2.23909,-1.504852 3.08956,-2.130057
         3.21689,-2.364488 5.79232,-4.737902 7.70228,-7.100167 3.09676,-3.831409 4.4133,-7.562359 3.80549,-10.773058
         -0.42043,-2.210414 -1.82588,-4.039057 -3.81992,-4.967887 -0.85767,-0.399664 -1.69132,-0.607312
         -2.6355,-0.656431 -1.22285,-0.0647 -2.42648,0.178619 -3.57485,0.721182 -1.95561,0.922124
         -3.58927,2.719503 -4.61752,5.081755 -0.072,0.165235 -0.1394,0.310355 -0.14895,0.319295
         -0.0312,0.02902 -0.0648,-0.02679 -0.19458,-0.330457 -0.30752,-0.714476 -0.91055,-1.752718
         -1.38382,-2.377871 -0.4853,-0.645282 -1.2661,-1.431214 -1.84749,-1.862143 -1.50155,-1.114153
         -3.26013,-1.658924 -5.00914,-1.553996 z"
         style="fill:#000000;fill-opacity:1;stroke:none;stroke-width:0.00231605"/>
    </g>
  </g>
</svg>